<?xml version="1.0" standalone="no"?>
<!DOCTYPE svg PUBLIC "-//W3C//DTD SVG 1.1//EN" "http://www.w3.org/Graphics/SVG/1.1/DTD/svg11.dtd" >
<svg xmlns="http://www.w3.org/2000/svg">
<metadata>Generated by IcoMoon</metadata>
<defs>
<font id="Ok-Icons" horiz-adv-x="1024">
<font-face units-per-em="1024" ascent="960" descent="-64" />
<missing-glyph horiz-adv-x="1024" />
<glyph unicode="&#x20;" horiz-adv-x="512" d="" />
<glyph unicode="&#xe900;" glyph-name="wallet" d="M0 448c0-282.764 229.222-512 512-512s512 229.236 512 512-229.222 512-512 512-512-229.236-512-512zM906.226 359.698c0-21.167-17.226-38.379-38.393-38.379h-4.264v-108.811c0-21.167-17.24-38.393-38.393-38.393h-520.543c-9.216 0-17.562 3.395-24.183 8.795-0.491-0.042-0.926-0.281-1.417-0.281-3.24 0-6.481 1.234-8.978 3.675-91.29 89.831-91.29 103.999-91.29 109.33v407.454c0 21.167 17.226 38.407 38.393 38.407h520.543c21.167 0 38.393-17.24 38.393-38.407v-44.733h49.068c21.153 0 38.393-17.24 38.393-38.407v-123.736h4.264c21.181 0 38.393-17.24 38.393-38.407v-98.108h0.014zM867.833 470.612h-104.518c-34.115 0-61.889-27.746-61.889-61.861 0-34.101 27.774-61.847 61.889-61.847h104.518c7.070 0 12.793 5.723 12.793 12.793v98.136c0 7.042-5.723 12.779-12.793 12.779v0zM763.315 366.108c-23.538 0-42.685 19.119-42.685 42.643s19.147 42.671 42.685 42.671c23.51 0 42.643-19.147 42.643-42.671s-19.133-42.643-42.643-42.643v0zM780.386 408.765c0-9.428-7.643-17.071-17.071-17.071s-17.071 7.643-17.071 17.071c0 9.428 7.643 17.071 17.071 17.071s17.071-7.643 17.071-17.071zM750.508 703.088c0 7.056-5.737 12.807-12.793 12.807h-520.543c-7.056 0-12.807-5.751-12.807-12.807v-406.023c4.166-9.174 32.011-40.090 61.861-70.656v393.539c0 21.167 17.24 38.407 38.407 38.407h445.875v44.733z" />
<glyph unicode="&#xe901;" glyph-name="cancelado" horiz-adv-x="1170" d="M1152.423 44.642l-509.318 878.104c-12.857 22.17-35.856 35.401-61.489 35.401-25.681 0-48.664-13.231-61.505-35.401l-509.286-878.104c-12.922-22.235-12.954-48.843-0.098-71.176 12.857-22.284 35.889-35.58 61.603-35.58h1018.571c25.681 0 48.729 13.296 61.635 35.58 12.808 22.284 12.776 48.876-0.114 71.176v0zM574.009 891.425c1.69 2.893 4.226 4.356 7.574 4.356s5.9-1.463 7.574-4.34l509.286-878.104c1.69-2.893 1.69-5.835 0.033-8.696-1.69-2.926-4.259-4.405-7.591-4.405h-1018.555c-3.348 0-5.9 1.495-7.574 4.389s-1.658 5.835 0.016 8.728l509.237 878.072zM613.636 172.316v481.654c0 43.447-67.373 43.447-67.373 0v-481.654c0-43.447 67.373-43.447 67.373 0v0zM581.616 34.206c19.814 0 35.938 16.108 35.938 35.938 0 19.814-16.124 35.921-35.938 35.921s-35.921-16.108-35.921-35.921c-0.016-19.83 16.108-35.938 35.921-35.938v0z" />
<glyph unicode="&#xe902;" glyph-name="iconpassword" horiz-adv-x="899" d="M151.275 558.234h-33.011v223.999c0 137.988 126.83 175.506 193.91 176.067l0.297-33.011c-6.569-0.066-161.195-3.45-161.195-143.055v-223.999zM471.19 782.233c0 140.101-154.609 143.006-161.179 143.055l0.281 33.011c67.063-0.561 193.91-38.079 193.91-176.067v-83.882h-33.011v39.68zM760.288-65.056h-325.114c-76.834 0-139.358 62.524-139.358 139.358 0 76.818 62.524 139.325 139.358 139.325h325.114c76.867 0 139.358-62.507 139.358-139.325 0-76.834-62.524-139.358-139.358-139.358zM435.174 180.632c-58.645 0-106.347-47.702-106.347-106.314 0-58.645 47.702-106.347 106.347-106.347h325.114c58.645 0 106.347 47.718 106.347 106.347s-47.685 106.314-106.281 106.314h-325.18zM328.448 62.269h-327.804v512.47h623.34v-394.075h-188.809c-57.44 0-104.069-45.028-106.132-102.484l-0.594-15.912zM33.655 95.28h263.844c10.085 67.542 67.756 118.396 137.658 118.396h155.798v328.052h-557.3v-446.447zM462.128 78.775c0-21.924-17.773-39.696-39.696-39.696s-39.696 17.773-39.696 39.696c0 21.924 17.773 39.696 39.696 39.696s39.696-17.773 39.696-39.696zM585.013 78.775c0-21.924-17.773-39.696-39.696-39.696s-39.696 17.773-39.696 39.696c0 21.924 17.773 39.696 39.696 39.696s39.696-17.773 39.696-39.696zM698.853 78.775c0-21.924-17.773-39.696-39.696-39.696s-39.696 17.773-39.696 39.696c0 21.924 17.773 39.696 39.696 39.696s39.696-17.773 39.696-39.696zM815.714 78.775c0-21.924-17.773-39.696-39.696-39.696s-39.696 17.773-39.696 39.696c0 21.924 17.773 39.696 39.696 39.696s39.696-17.773 39.696-39.696z" />
<glyph unicode="&#xe903;" glyph-name="delete_keyboard" horiz-adv-x="1365" d="M1251.669 959.355h-851.949c-39.765 0-68.172-17.029-90.871-51.124l-306.707-460.041 306.688-460.041c22.718-28.407 51.105-51.105 90.871-51.105h851.949c62.464 0 113.588 51.105 113.588 113.588v795.136c0.019 62.483-51.105 113.588-113.569 113.588zM1122.152 185.666l-22.054-22.073-261.499 261.518-259.47-259.451-22.054 22.035 259.451 259.47-261.499 261.518 22.054 22.054 261.537-261.518 263.547 263.566 22.054-22.054-263.585-263.566 261.518-261.499z" />
<glyph unicode="&#xe904;" glyph-name="iconnumerodocumento" horiz-adv-x="1449" d="M949.132 846.491v113.509h-420.226v-113.509h-528.906v-910.491h1449.057v910.491h-499.925zM574.792 914.113h328.453v-65.208h-328.453v65.208zM1400.755-18.113h-1354.868v818.717h1354.868v-818.717zM376.755 390.038c70.038 0 125.585 57.962 125.585 125.585 0 70.038-57.962 125.585-125.585 125.585s-125.585-57.962-125.585-125.585c0-70.038 55.547-125.585 125.585-125.585zM376.755 595.321c43.472 0 79.698-36.226 79.698-79.698s-36.226-79.698-79.698-79.698-79.698 36.226-79.698 79.698c0 43.472 36.226 79.698 79.698 79.698zM376.755 346.566v0c-2.415 0-2.415 0-4.83 0 0 0 0 0 0 0v0c-72.453-2.415-130.415-24.151-169.057-67.623-60.377-65.208-53.132-152.151-53.132-154.566l45.887 2.415c0 0-4.83 70.038 41.057 120.755 28.981 31.396 74.868 50.717 135.245 53.132 60.377 0 106.264-16.906 140.075-48.302 48.302-50.717 48.302-123.17 48.302-123.17h48.302c0 4.83 2.415 91.774-60.377 156.981-43.472 38.642-99.019 60.377-171.472 60.377zM724.528 662.943h560.302v-45.887h-560.302v45.887zM724.528 498.717h560.302v-45.887h-560.302v45.887zM724.528 346.566h326.038v-45.887h-326.038v45.887z" />
<glyph unicode="&#xe905;" glyph-name="iconNIF" horiz-adv-x="657" d="M657.067-64h-657.067v834.56h657.067v-834.56zM40.96-23.040h576.853v752.64h-576.853v-752.64zM27.307 731.307l-13.653 37.547 506.88 191.147v-209.92h-40.96v151.893zM322.56 140.8c-116.053 0-209.92 93.867-209.92 209.92s93.867 209.92 209.92 209.92c116.053 0 209.92-93.867 209.92-209.92s-92.16-209.92-209.92-209.92zM322.56 521.387c-93.867 0-170.667-76.8-170.667-170.667s76.8-170.667 170.667-170.667c93.867 0 170.667 76.8 170.667 170.667s-76.8 170.667-170.667 170.667zM307.2 149.333c-143.36 213.333 0 402.773 0 404.48l32.427-25.6c-5.12-6.827-126.293-167.253 0-356.693l-32.427-22.187zM361.813 149.333l-34.133 22.187c128 189.44 1.707 354.987 0 356.693l32.427 25.6c1.707-1.707 145.067-191.147 1.707-404.48zM133.12 371.2h380.587v-40.96h-380.587v40.96z" />
<glyph unicode="&#xe906;" glyph-name="bill10" horiz-adv-x="722" d="M660.48 960h-599.040c-34.133 0-61.44-27.307-61.44-61.44v-901.12c0-34.133 27.307-61.44 61.44-61.44h489.813c5.12 0 11.947 1.707 15.36 6.827l150.187 150.187c3.413 3.413 6.827 10.24 6.827 15.36v791.893c0 32.427-29.013 59.733-63.147 59.733zM573.44 9.387v58.027c0 10.24 8.533 18.773 18.773 18.773h58.027l-76.8-76.8zM63.147 917.333h599.040c10.24 0 18.773-8.533 18.773-18.773v-66.56h-636.587v66.56c0 10.24 8.533 18.773 18.773 18.773zM44.373-2.56v791.893h636.587v-660.48h-88.747c-34.133 0-61.44-27.307-61.44-61.44v-88.747h-467.627c-10.24 0-18.773 8.533-18.773 18.773zM131.413 628.907h281.6c11.947 0 22.187 10.24 22.187 22.187s-10.24 22.187-22.187 22.187h-281.6c-11.947 0-22.187-10.24-22.187-22.187 1.707-11.947 11.947-22.187 22.187-22.187zM500.053 628.907h73.387c11.947 0 22.187 10.24 22.187 22.187s-10.24 22.187-22.187 22.187h-73.387c-11.947 0-22.187-10.24-22.187-22.187s10.24-22.187 22.187-22.187zM131.413 458.24h281.6c11.947 0 22.187 10.24 22.187 22.187s-10.24 22.187-22.187 22.187h-281.6c-11.947 0-22.187-10.24-22.187-22.187 1.707-11.947 11.947-22.187 22.187-22.187zM500.053 458.24h73.387c11.947 0 22.187 10.24 22.187 22.187s-10.24 22.187-22.187 22.187h-73.387c-11.947 0-22.187-10.24-22.187-22.187s10.24-22.187 22.187-22.187zM435.2 309.76c0 11.947-10.24 22.187-22.187 22.187h-281.6c-11.947 0-22.187-10.24-22.187-22.187s10.24-22.187 22.187-22.187h281.6c11.947 0 22.187 10.24 22.187 22.187zM500.053 287.573h73.387c11.947 0 22.187 10.24 22.187 22.187s-10.24 22.187-22.187 22.187h-73.387c-11.947 0-22.187-10.24-22.187-22.187s10.24-22.187 22.187-22.187zM571.733 164.693c11.947 0 22.187 10.24 22.187 22.187s-10.24 22.187-22.187 22.187h-204.8c-11.947 0-22.187-10.24-22.187-22.187s10.24-22.187 22.187-22.187h204.8z" />
<glyph unicode="&#xe907;" glyph-name="visible" horiz-adv-x="1856" d="M1809.789 505.233c-3.094 6.187-92.81 114.465-244.399 225.837-204.181 148.495-423.831 228.931-640.387 228.931s-436.205-77.341-640.387-228.931c-151.589-111.372-238.211-222.743-244.399-225.837l-46.405-58.779 46.405-58.779c3.094-6.187 92.81-114.465 244.399-225.837 201.088-148.495 423.831-228.931 640.387-228.931s436.205 77.341 640.387 228.931c151.589 111.372 238.211 222.743 244.399 225.837l46.405 58.779-46.405 58.779zM1760.29 427.891c-3.094-3.094-86.622-108.278-232.024-216.556-191.807-142.308-399.082-216.556-603.263-216.556-201.088 0-411.456 74.248-603.263 216.556-145.402 105.184-228.931 210.369-232.024 216.556l-15.468 18.562 15.468 18.562c3.094 3.094 86.622 108.278 232.024 216.556 191.807 142.308 399.082 216.556 603.263 216.556 201.088 0 411.456-74.248 603.263-216.556 145.402-105.184 228.931-210.369 232.024-216.556l15.468-18.562-15.468-18.562zM928.097 792.943c-191.807 0-346.489-154.683-346.489-346.489s154.683-346.489 346.489-346.489 346.489 154.683 346.489 346.489-154.683 346.489-346.489 346.489zM928.097 164.931c-157.776 0-284.616 126.84-284.616 284.616s126.84 284.616 284.616 284.616c154.683 0 284.616-126.84 284.616-284.616s-129.934-284.616-284.616-284.616zM928.097 663.009v-61.873c83.529 0 151.589-68.060 151.589-151.589h61.873c0 114.465-95.903 213.462-213.462 213.462z" />
<glyph unicode="&#xe908;" glyph-name="currency" horiz-adv-x="1101" d="M191.126 568.571l-70.316-32.084c0.661 1.707 1.193 3.487 1.468 5.378 13.582 92.158 55.724 175.818 121.801 241.895 168.293 168.293 442.106 168.293 610.399 0 9.746-9.728 25.55-9.728 35.259 0 9.765 9.746 9.746 25.55 0.018 35.277-200.689 200.67-506.127 174.79-680.935 0-73.73-73.712-120.681-167.045-135.879-269.885-0.037-0.33 0-0.642-0.037-0.973l-43.941 67.581c-4.735 7.287-14.482 9.379-21.787 4.625s-9.361-14.518-4.625-21.805l69.435-116.239 126.114 57.578c7.874 0.808 9.434 1.891 10.719 3.175 4.515 4.515 6.002 11.527 3.194 17.675-3.634 7.929-12.995 11.417-20.887 7.801zM1098.721 268.162l-75.529 116.221-126.096-57.578c-7.948-3.597-11.398-12.958-7.801-20.869 3.616-7.911 12.958-11.398 20.869-7.782l74.74 34.121c-16.648-83.587-57.119-159.354-117.983-220.218-168.293-168.293-442.124-168.293-610.399 0-9.746 9.746-25.531 9.728-35.277 0-9.728-9.728-9.746-25.531 0-35.259 187.749-187.73 493.223-187.73 680.954 0 65.617 65.636 109.999 146.836 129.638 236.425l40.472-62.259c4.735-7.287 14.482-9.361 21.787-4.607 0.973 0.606 1.817 1.303 2.57 2.056 5.158 5.176 6.185 13.38 2.056 19.749zM780.729 721.318c-0.018 9.985-8.131 18.098-18.098 18.098h-377.039c-9.967 0-18.098-8.113-18.098-18.098s8.113-18.098 18.098-18.098l159.391 0.073c39.921-7.379 85.477-39.499 95.921-107.447h-255.312c-9.967 0-18.098-8.113-18.098-18.116 0-9.967 8.113-18.098 18.098-18.098h257.588c-1.523-33.277-13.637-60.276-36.085-80.283-45.96-40.839-125.802-46.933-169.321-46.933-21.401 0-37.021 1.413-41.555 1.872-7.415 0.771-14.684-3.157-18.006-9.508-3.542-6.608-2.643-14.574 2.276-20.337l251.586-291.268c3.451-3.965 8.425-6.259 13.711-6.259 4.35 0 8.553 1.56 11.857 4.405 7.525 6.498 8.37 17.969 1.835 25.55l-223.87 259.203c0.826 0 1.67 0 2.533 0 59.193 0 140.706 9.746 192.961 56.202 30.487 27.091 46.731 63.195 48.309 107.356h83.238c9.985 0 18.098 8.131 18.098 18.098-0.018 9.985-8.131 18.098-18.098 18.098h-85.404c-5.727 43.684-24.76 81.201-54.256 107.374h139.66c9.967 0.018 18.079 8.131 18.079 18.116z" />
<glyph unicode="&#xe909;" glyph-name="buy11" horiz-adv-x="1525" d="M1435.633 960h-851.216c-48.278 0-88.933-40.655-88.933-88.933v-40.655c-17.787 7.623-40.655 12.705-68.605 12.705-35.573 0-66.065-7.623-68.605-10.164-7.623-2.541-12.705-5.082-17.787-10.164l-325.241-284.586c-10.164-10.164-17.787-22.868-15.246-38.114l2.541-467.533c0-25.409 30.491-45.737 53.36-45.737 2.541 0 121.965-5.082 228.685-5.082 66.065 0 111.801 2.541 139.752 5.082 86.392 10.164 121.965 35.573 137.211 50.819 15.246 12.705 30.491 22.868 45.737 35.573-12.705-45.737 7.623-96.556 50.819-116.883 15.246-7.623 30.491-10.164 45.737-10.164 27.95 0 53.36 12.705 73.687 30.491 10.164-12.705 20.328-22.868 35.573-30.491s30.491-10.164 45.737-10.164c38.114 0 73.687 20.328 91.474 55.901l66.065 132.129c12.705 25.409 15.246 50.819 5.082 78.769-2.541 7.623-7.623 15.246-12.705 22.868h421.797c48.278 0 88.933 40.655 88.933 88.933v556.467c5.082 48.278-35.573 88.933-83.851 88.933zM810.561 164.685l-66.065-132.129c-10.164-17.787-33.032-25.409-50.819-17.787-17.787 10.164-25.409 33.032-17.787 50.819l55.901 109.261c0 0 17.787 43.196 45.737 45.737 5.082 0 10.164-2.541 15.246-5.082 10.164-5.082 15.246-12.705 17.787-22.868 5.082-7.623 2.541-17.787 0-27.95zM703.841 281.568l-60.983-55.901c-38.114-33.032-83.851-68.605-139.752-111.801-5.082-2.541-5.082-2.541-7.623-7.623 0 0-17.787-17.787-81.31-25.409-17.787-2.541-53.36-2.541-129.588-2.541-66.065 0-147.375 0-190.571 0v401.469l297.29 261.717c7.623 2.541 20.328 2.541 33.032 2.541 20.328 0 33.032-2.541 40.655-10.164v-330.323c0-17.787 7.623-33.032 22.868-40.655 2.541 0 2.541 0 5.082-2.541v-2.541l5.082 2.541c12.705-5.082 25.409-5.082 38.114 2.541 73.687 40.655 215.98 104.179 276.963 104.179 2.541 0 5.082 0 7.623 0 0 0 0 0 0-2.541 2.541-2.541 7.623-58.442-116.883-182.948zM963.017 154.521l-66.065-132.129c-10.164-17.787-33.032-25.409-50.819-17.787-17.787 10.164-25.409 33.032-17.787 50.819l66.065 132.129c7.623 12.705 20.328 20.328 33.032 20.328 5.082 0 12.705-2.541 17.787-5.082 10.164-5.082 15.246-12.705 17.787-22.868 5.082-7.623 5.082-17.787 0-25.409zM1466.124 314.6c0-15.246-12.705-30.491-30.491-30.491h-599.663c48.278 60.983 76.228 114.342 81.31 162.62 2.541 38.114-7.623 60.983-15.246 73.687-10.164 17.787-33.032 45.737-86.392 45.737-71.146 0-177.866-45.737-251.553-81.31v132.129h902.035v-302.372zM1466.124 792.298h-909.658v78.769c0 15.246 12.705 30.491 30.491 30.491h851.216c15.246 0 30.491-15.246 30.491-30.491l-2.541-78.769zM1397.519 340.010v78.769h-233.767l2.541-78.769z" />
<glyph unicode="&#xe90a;" horiz-adv-x="1365" d="M1251.556 960h-853.333c-39.822 0-68.267-17.067-91.022-51.2l-307.2-460.8 307.2-460.8c22.756-28.444 51.2-51.2 91.022-51.2h853.333c62.578 0 113.778 51.2 113.778 113.778v796.444c0 62.578-51.2 113.778-113.778 113.778z" />
<glyph unicode="&#xe90b;" horiz-adv-x="1365" d="M1123.897 710.986l-22.096 22.073-264.010-264.010-261.916 261.939-22.096-22.073 261.939-261.939-259.868-259.891 22.050-22.096 259.891 259.891 261.939-261.939 22.096 22.073-261.939 261.962z" />
<glyph unicode="&#xe90c;" glyph-name="aadir_destinatario" horiz-adv-x="1378" d="M1378.166 748.589h-219.496v211.411h-18.49v-211.411h-225.215v-18.49h225.215v-233.3h18.49v233.3h219.496zM467.91 871.843c-257.993 0-467.91-209.918-467.91-467.91 0-258.016 209.918-467.91 467.91-467.91 258.016 0 467.91 209.895 467.91 467.91 0 257.993-209.895 467.91-467.91 467.91zM808.616 111.326c-22.464 103.799-224.595 155.893-340.705 155.893s-318.241-52.118-340.705-155.916c-67.668 78.716-108.714 180.93-108.714 292.63 0 247.817 201.603 449.42 449.42 449.42s449.42-201.603 449.42-449.42c0-111.7-41.046-213.914-108.714-292.608zM467.382 642.494c-85.285 0-154.676-69.46-154.676-154.837s69.391-154.837 154.676-154.837c85.285 0 154.653 69.437 154.653 154.837 0 85.377-69.368 154.837-154.653 154.837z" />
<glyph unicode="&#xe90d;" glyph-name="arrow_down" horiz-adv-x="1792" d="M926.572-51.25l852.224 854.642c16.96 16.99 16.96 44.609 0 61.598l-81.992 82.171c-8.181 8.151-19.229 12.809-30.724 12.809-11.466 0-22.573-4.658-30.754-12.809l-739.597-741.568-739.537 741.598c-8.181 8.151-19.199 12.809-30.754 12.809s-22.573-4.658-30.754-12.809l-81.932-82.171c-8.48-8.569-12.75-19.707-12.75-30.784 0-11.137 4.21-22.364 12.75-30.814l852.253-854.672c17.019-17.019 44.549-17.019 61.568 0v0z" />
<glyph unicode="&#xe90e;" glyph-name="arrow" horiz-adv-x="584" d="M576.427 465.596l-487.168 487.117c-9.694 9.711-25.412 9.711-35.123 0l-46.848-46.848c-4.642-4.642-7.27-10.94-7.27-17.545 0-6.588 2.628-12.919 7.27-17.579l422.758-422.741-422.758-422.741c-4.659-4.642-7.287-10.991-7.287-17.579s2.628-12.919 7.287-17.562l46.848-46.848c4.83-4.83 11.213-7.27 17.596-7.27 6.332 0 12.715 2.406 17.545 7.287l487.168 487.151c9.694 9.711 9.694 25.429-0.017 35.157z" />
<glyph unicode="&#xe90f;" glyph-name="ayuda" horiz-adv-x="1032" d="M1032.171 664.008c0 84.518-74.093 153.295-165.216 153.518-10.872 74.97-80.355 132.926-164.27 132.926-30.776 0-60.399-7.793-86.444-22.673-29.021 20.833-64.494 32.221-101.428 32.221-62.274 0-119.113-32.823-147.205-83.313-14.175 3.578-28.78 5.402-43.575 5.402-91.347 0-165.698-68.846-165.698-153.518 0-5.987 0.396-12.059 1.135-18.063-35.782-29.124-56.030-70.377-56.030-114.915 0-63.272 41.080-118.958 103.389-142.285 14.605-72.011 82.23-124.772 162.791-124.772 27.043 0 53.449 6.107 77.224 17.736 28.918-20.523 64.167-31.705 100.671-31.705 49.407 0 95.699 20.317 127.129 55.066 21.332-8.911 44.418-13.556 67.814-13.556 91.33 0 165.646 68.846 165.646 153.484 0 1.961 0 3.922-0.155 5.883 72.132 17.306 124.222 78.049 124.222 148.564zM882.833 552.722l-21.848-2.58 4.043-21.59c1.256-6.83 1.892-13.005 1.892-18.923 0-61.947-55.875-112.369-124.549-112.369-22.347 0-44.435 5.557-63.891 16.067l-15.913 8.619-10.511-14.726c-23.155-32.221-62.24-51.454-104.559-51.454-31.739 0-62.068 10.907-85.378 30.707l-11.199 9.548-12.661-7.552c-20.489-12.248-44.246-18.717-68.725-18.717-64.494 0-117.771 43.626-123.964 101.411l-1.411 13.676-13.177 3.785c-51.729 15.018-86.427 58.008-86.427 107.019 0 35.128 17.874 67.607 49.011 89.094l11.405 7.879-3.079 13.59c-1.617 7.328-2.46 14.846-2.46 22.381 0 61.982 55.875 112.421 124.583 112.421 16.205 0 32.101-2.856 47.342-8.498l18.82-6.984 7.414 18.665c17.685 44.676 64.82 74.643 117.203 74.643 32.359 0 63.083-11.268 86.53-31.705l12.111-10.58 13.16 9.272c22.071 15.448 48.374 23.568 76.071 23.568 68.725 0 124.635-50.387 124.721-111.216l-0.172-25.581 23.086 2.752c5.402 0.688 10.7 1.084 16.239 1.084 68.657 0 124.617-50.422 124.617-112.403-0.12-56.116-46.603-103.94-108.326-111.302zM257.51 297.707c-66.867 0-121.246-45.536-121.246-101.531 0-55.978 54.378-101.445 121.246-101.445 66.816 0 121.229 45.484 121.229 101.445 0.017 55.978-54.361 101.531-121.229 101.531zM257.51 135.828c-44.194 0-80.079 27.094-80.079 60.416 0 33.305 35.851 60.365 80.079 60.365 44.143 0 80.096-27.060 80.096-60.365 0.017-33.356-35.954-60.416-80.096-60.416zM89.851 88.538c-49.561 0-89.851-34.199-89.851-76.295 0-42.027 40.289-76.26 89.851-76.26 49.544 0 89.816 34.234 89.816 76.26 0 42.078-40.22 76.295-89.816 76.295zM89.851-22.954c-26.424 0-48.77 16.085-48.77 35.18 0 19.061 22.329 35.197 48.77 35.197 26.458 0 48.718-16.136 48.718-35.197 0-19.078-22.26-35.18-48.718-35.18zM557.82 449.522c0-13.216-10.96-23.929-24.48-23.929s-24.48 10.713-24.48 23.929c0 13.216 10.96 23.929 24.48 23.929s24.48-10.713 24.48-23.929zM559.299 812.864c-69.706 0-126.424-55.204-126.424-123.104 0-10.614 8.808-19.233 19.628-19.233 10.838 0 19.646 8.619 19.646 19.233 0 46.654 39.102 84.621 87.167 84.621 48.048 0 87.15-37.967 87.15-84.621 0-46.671-39.102-84.638-87.15-84.638-0.602 0-1.273-0.034-1.651-0.052-24.067-0.877-43.609-19.938-44.435-42.938-0.086-0.688-0.12-1.376-0.12-2.082v-57.939c0-10.614 8.808-19.25 19.628-19.25s19.628 8.636 19.628 19.25v57.939c0 3.647 3.131 6.623 6.95 6.623 33.683 0 65.405 12.799 89.3 36.040 23.929 23.293 37.089 54.206 37.072 87.046 0 67.882-56.683 123.104-126.389 123.104z" />
<glyph unicode="&#xe910;" glyph-name="back" horiz-adv-x="1046" d="M1020.962 476.194h-929.263l473.020 440.713c10.069 9.37 10.615 25.122 1.229 35.191-9.335 10.086-25.122 10.615-35.191 1.246l-513.843-478.72c-9.796-3.362-16.93-12.39-16.93-23.296 0-0.597 0.307-1.092 0.341-1.673-0.034-0.563-0.341-1.058-0.341-1.638 0-6.895 2.867-13.517 7.919-18.21l522.837-487.083c4.796-4.489 10.906-6.69 16.964-6.69 6.673 0 13.329 2.662 18.21 7.919 9.387 10.069 8.841 25.839-1.229 35.191l-480.085 447.249h936.363c13.756 0 24.9 11.145 24.9 24.9s-11.145 24.9-24.9 24.9z" />
<glyph unicode="&#xe911;" glyph-name="banco" d="M69.475 635.681h884.931c0.034 0 0.034 0 0.068 0 12.765 0 23.192 10.359 23.192 23.141 0 8.652-4.813 16.264-11.861 20.189l-441.51 277.456c-7.543 4.71-17.1 4.71-24.66 0l-442.482-278.019c-8.721-5.478-12.799-16.127-9.932-26.042 2.884-9.915 11.946-16.724 22.254-16.724zM511.974 909.468l362.085-227.453h-724.171l362.085 227.453zM1000.791 98.159h-23.141v69.492c0 12.833-10.427 23.175-23.227 23.175h-23.141v352.187h23.141c12.799 0 23.227 10.342 23.227 23.141s-10.427 23.158-23.227 23.158h-884.931c-12.799 0-23.141-10.376-23.141-23.158 0-12.799 10.359-23.141 23.141-23.141h23.175v-352.102h-23.175c-12.799 0-23.141-10.376-23.141-23.21v-69.458h-23.192c-12.799-0.068-23.141-10.376-23.141-23.244v-115.792c0-12.782 10.359-23.175 23.141-23.175h977.649c12.799 0 23.141 10.393 23.141 23.21v115.774c0 12.833-10.359 23.141-23.158 23.141zM838.631 543.014h46.334v-352.17h-46.334v352.17zM701.166 543.014h91.131v-352.102h-91.131v352.102zM608.482 543.014h46.351v-352.102h-46.351v352.102zM461.784 543.014h100.398v-352.102h-100.398v352.102zM369.116 543.014h46.3v-352.102h-46.3v352.102zM231.634 543.014h91.131v-352.102h-91.131v352.102zM138.967 543.014h46.334v-352.102h-46.334v352.102zM977.683-17.649h-931.35v69.509h186.751c12.799 0 23.141 10.359 23.141 23.107 0 12.833-10.359 23.175-23.141 23.175h-140.418v46.334h838.631v-46.317h-619.182c-12.799 0-23.175-10.342-23.175-23.175 0-12.748 10.393-23.107 23.175-23.107h665.567v-69.526z" />
<glyph unicode="&#xe912;" glyph-name="buscar" horiz-adv-x="1001" d="M744.721 261.82c58.027 72.841 93.047 178.125 93.047 279.262 0.034 233.899-189.372 418.918-418.85 418.918-229.53 0-418.918-185.020-418.918-418.918s189.389-418.901 418.901-418.901c97.587 0 185.071 35.686 256 93.082l256-279.262 69.837 69.786-256.017 256.034zM418.918 215.279c-178.227 0-325.82 144.179-325.82 325.803s147.593 325.803 325.82 325.803c178.21 0 325.82-144.196 325.82-325.803s-147.61-325.803-325.82-325.803z" />
<glyph unicode="&#xe913;" glyph-name="cerrar" horiz-adv-x="1046" d="M563.409 448l473.661 463.309c11.223 10.961 11.397 28.946 0.453 40.169-10.996 11.205-28.929 11.415-40.186 0.436l-474.532-464.163-474.532 464.163c-11.205 10.961-29.207 10.77-40.169-0.436-10.979-11.223-10.787-29.19 0.436-40.169l473.644-463.309-473.644-463.292c-11.223-10.961-11.415-28.946-0.436-40.169 5.559-5.681 12.931-8.539 20.302-8.539 7.162 0 14.342 2.684 19.867 8.103l474.532 464.181 474.532-464.181c5.524-5.42 12.704-8.103 19.867-8.103 7.389 0 14.743 2.858 20.32 8.539 10.944 11.223 10.752 29.207-0.453 40.169l-473.661 463.292z" />
<glyph unicode="&#xe914;" glyph-name="cerrar_sesion" horiz-adv-x="1354" d="M1093.846 708.192l-36.243-36.198 198.413-198.413h-810.421v-51.206h810.421l-198.413-198.391 36.243-36.198 260.203 260.203zM921.566-12.817h-870.361v921.611h870.361v-332.803h51.228v384.008h-972.794v-1024.023h972.794v384.008h-51.228z" />
<glyph unicode="&#xe915;" glyph-name="condiciones_del_servicio" horiz-adv-x="1022" d="M1002.615 940.476c-13.022 13.005-30.14 19.524-47.223 19.524-17.118 0-34.167-6.519-47.189-19.524l-196.352-196.352v37.205h-711.851v-845.329h845.329v711.851h-40.926l198.212 198.229c26.095 26.027 26.095 68.318 0 94.396zM800.836-19.507h-756.343v756.343h660.087l-348.655-348.621v-96.29h92.587l352.324 352.341v-663.774zM971.162 877.534l-541.065-541.116h-29.679v33.382l539.29 539.238c5.649 5.649 12.254 6.468 15.701 6.468 3.465 0 10.086-0.853 15.753-6.519 5.7-5.683 6.554-12.305 6.554-15.753-0.017-3.413-0.853-10.001-6.554-15.701z" />
<glyph unicode="&#xe916;" glyph-name="concepto" d="M0 960v-755.814h487.612v-268.186l341.333 268.186h195.055v755.814h-1024zM975.241 252.945h-170.667l-268.203-219.409v219.409h-487.612v658.295h926.464v-658.295z" />
<glyph unicode="&#xe917;" glyph-name="configuracion" d="M573.44 919.040v-99.806l30.72-7.936c34.748-8.96 67.908-22.938 98.543-41.54l27.477-16.674 22.716 22.75 48.708 48.708 86.886-86.886-72.533-72.516 15.616-27.204c17.323-30.157 30.276-62.805 38.485-97.058l7.526-31.403h105.421v-122.863h-107.742l-8.311-30.089c-8.96-32.393-22.391-63.522-39.953-92.433l-16.691-27.494 22.75-22.716 55.45-55.467-86.852-86.886-79.309 79.292-27.187-15.616c-28.194-16.213-58.812-28.621-90.982-36.915l-30.72-7.953v-113.34h-122.897v113.34l-30.737 7.953c-32.154 8.294-62.771 20.702-90.965 36.915l-27.204 15.616-79.258-79.292-86.869 86.886 78.199 78.182-16.674 27.494c-17.545 28.911-31.010 60.041-39.953 92.433l-8.294 30.089h-107.776v122.863h105.421l7.526 31.403c8.192 34.236 21.163 66.901 38.485 97.058l15.633 27.204-72.55 72.499 86.869 86.886 71.441-71.458 27.477 16.674c30.635 18.603 63.795 32.563 98.543 41.54l30.72 7.936v99.823h122.846zM512 263.646c101.615 0 184.303 82.739 184.303 184.371 0 101.649-82.688 184.337-184.303 184.337-101.649 0-184.32-82.688-184.32-184.337s82.705-184.371 184.32-184.371zM614.383 960h-204.783v-109.039c-39.117-10.103-75.878-25.754-109.568-46.199l-77.67 77.687-144.794-144.811 79.326-79.309c-19.149-33.314-33.621-69.547-42.803-107.913h-114.091v-204.8h117.555c10.103-36.608 25.173-71.031 44.425-102.793l-84.412-84.429 144.794-144.811 86.067 86.084c31.369-18.005 65.297-31.829 101.154-41.045v-122.607h204.8v122.607c35.84 9.216 69.803 23.057 101.137 41.045l86.084-86.084 144.777 144.811-84.395 84.412c19.234 31.761 34.304 66.167 44.425 102.793h117.538v204.8h-114.057c-9.199 38.366-23.671 74.598-42.82 107.913l79.309 79.309-144.777 144.828-77.687-77.687c-33.707 20.446-70.417 36.096-109.568 46.199v109.039h0.034zM512 304.606c-79.189 0-143.36 64.222-143.36 143.411 0 79.206 64.171 143.377 143.36 143.377s143.343-64.188 143.343-143.377c0.017-79.189-64.102-143.411-143.343-143.411v0z" />
<glyph unicode="&#xe918;" glyph-name="editar" horiz-adv-x="1019" d="M791.006 960l-791.006-791.006v-228.181h224.939l794.317 791.415-228.25 227.772zM791.040 891.955l160.051-159.71-126.037-125.577-159.642 159.659 125.628 125.628zM205.056-11.059h-156.928v160.119l583.236 583.236 159.59-159.59-585.899-583.765zM426.786-15.872h546.338v-48.128h-546.338v48.128z" />
<glyph unicode="&#xe919;" glyph-name="info" d="M512 960c-282.761 0-512-229.239-512-512s229.239-512 512-512 512 229.239 512 512-229.239 512-512 512zM543.027 191.676c0-19.046-15.428-34.509-34.492-34.509-18.995 0-34.441 15.462-34.441 34.509v389.001c0 19.046 15.445 34.458 34.441 34.458 19.046 0 34.492-15.394 34.492-34.458v-389.001zM510.703 668.809c-23.108 0-41.865 18.756-41.865 41.865 0 23.125 18.739 41.865 41.865 41.865s41.865-18.739 41.865-41.865c0-23.125-18.773-41.865-41.865-41.865z" />
<glyph unicode="&#xe91a;" glyph-name="enproceso" horiz-adv-x="1637" d="M1621.527 769.089c-2.946 1.255-5.919 1.828-8.865 1.991l-1585.030 188.756c-13.502 1.582-25.804-8.128-27.441-21.603-0.546-4.337 0.109-8.401 1.609-12.193l-0.055-0.027 179.373-444.885-150.732-355.172h0.082c-2.455-5.865-2.728-12.656-0.136-18.985 5.101-12.629 19.557-18.712 32.187-13.557l162.352 65.71c12.575 5.101 18.685 19.585 13.557 32.187s-19.585 18.685-32.187 13.557l-106.898-43.288 126.401 297.781 1039.63 196.53c13.366 2.564 22.149 15.548 19.612 28.913-2.591 13.338-15.575 22.122-28.968 19.557l-1032.81-195.22-159.951 396.687 1512.965-180.136-3.546-8.265-1143.063-720.081-146.177 362.482c-5.046 12.656-19.448 18.794-32.105 13.72-12.629-5.073-18.794-19.476-13.748-32.105l157.224-389.95c5.073-12.656 19.476-18.794 32.105-13.72 1.391 0.518 2.782 1.255 3.982 1.964l0.027-0.027 1174.677 739.993c4.419 2.782 7.719 6.765 9.601 11.293h0.109l19.367 45.634c5.292 12.547-0.546 27.113-13.147 32.459z" />
<glyph unicode="&#xe91b;" glyph-name="mail" horiz-adv-x="1196" d="M0 960v-1024h1196.285v1024h-1196.285zM1106.324 912.149l-498.133-502.28-498.113 502.28h996.246zM47.851-16.169v923.113l560.34-565.025 540.242 544.708v-902.796h-1100.582z" />
<glyph unicode="&#xe91c;" glyph-name="menu" horiz-adv-x="1699" d="M0 960h1698.645v-60.217h-1698.645v60.217zM0 478.123h1698.645v-60.217h-1698.645v60.217zM0-3.755h1698.645v-60.245h-1698.645v60.245z" />
<glyph unicode="&#xe91d;" glyph-name="mi_perfil" horiz-adv-x="986" d="M986.334-64l-1.075 17.203c-0.051 0.87-5.478 87.228-10.854 135.578-6.161 55.552-78.575 94.618-86.835 98.884l-252.57 88.798v120.303c74.547 55.006 125.184 150.682 125.184 257.178 0 165.905-122.539 306.057-267.571 306.057-143.326 0-269.039-143.019-269.039-306.057 0-105.028 52.309-201.506 127.761-257.058v-120.439l-252.587-88.781c-8.243-4.267-80.657-43.332-86.835-98.884-5.359-48.35-10.786-134.741-10.854-135.595l-1.075-17.186h986.351zM492.612 927.642c113.425 0 213.982-104.943 232.055-233.011-131.772-20.292-182.494 74.342-184.627 78.49l-9.148 18.142-15.633-12.988c-69.854-58.027-134.844-85.675-187.87-80.196-33.143 3.499-53.453 18.756-62.31 27.085 28.621 113.801 122.59 202.479 227.533 202.479zM255.932 653.943c0 11.998 1.007 23.808 2.458 35.516 14.626-9.916 35.908-20.19 64.393-23.415 59.324-6.69 126.106 18.825 198.895 75.861 8.704-12.015 23.006-28.706 43.844-43.964 26.129-19.132 66.782-38.81 123.392-38.81 12.083 0 24.951 0.99 38.519 2.97 0.068-2.731 0.375-5.393 0.375-8.141 0-145.801-109.926-273.698-235.213-273.698-126.071-0.017-236.663 127.881-236.663 273.681zM112.691 158.447l271.002 95.061v122.897c33.707-18.074 70.639-28.518 108.919-28.518 38.98 0 76.237 10.377 110.029 28.433v-122.812l270.985-95.061c18.825-9.984 65.024-41.011 68.608-73.216 3.84-34.577 7.731-89.242 9.591-116.855h-917.316c1.86 27.614 5.751 82.261 9.591 116.855 3.55 32.051 49.801 63.164 68.591 73.216z" />
<glyph unicode="&#xe91e;" glyph-name="movil" horiz-adv-x="607" d="M555.469 960h-504.115c-28.365 0-51.354-23.023-51.354-51.371v-921.259c0-28.399 23.006-51.371 51.354-51.371h504.098c28.348 0 51.354 22.972 51.354 51.371v921.276c0 28.365-22.989 51.354-51.337 51.354zM568.9-12.629c0-7.424-6.025-13.431-13.431-13.431h-504.115c-7.424 0-13.431 6.025-13.431 13.431v176.094h530.961v-176.094zM568.9 201.37h-530.961v606.157h530.961v-606.157zM568.9 845.449h-530.961v63.198c0 7.424 6.007 13.449 13.431 13.449h504.098c7.424 0 13.431-6.025 13.431-13.449v-63.198zM246.511 87.706h113.783v-37.922h-113.783v37.922z" />
<glyph unicode="&#xe91f;" glyph-name="password" horiz-adv-x="950" d="M769.039 564.811v101.064c0 159.153-130.552 288.638-291.053 288.638-160.468 0-291.020-129.485-291.020-288.655v-101.032h-183.072v-628.827h948.202v628.811h-183.056zM219.822 665.842c0 141.050 115.817 255.799 258.164 255.799 142.364 0 258.197-114.732 258.197-255.782v-101.048h-516.362v101.032zM919.239-31.161h-882.49v563.115h882.49v-563.115zM461.558 330.286h32.856v-160.254h-32.856v160.254z" />
<glyph unicode="&#xe920;" glyph-name="pregunta" d="M512 960c-282.761 0-512-229.222-512-512 0-282.761 229.239-512 512-512s512 229.239 512 512c0 282.778-229.239 512-512 512v0zM465.34 107.247c-19.132 0-34.662 15.514-34.662 34.645 0 19.115 15.531 34.645 34.662 34.645 19.149 0 34.662-15.531 34.662-34.645 0-19.132-15.514-34.645-34.662-34.645v0zM512.017 367.855c-12.015 0-21.794-9.762-21.794-21.777v-107.042c0-14.336-11.639-25.958-25.993-25.958-14.336 0-25.958 11.639-25.958 25.958v107.042c0 0.905 0.051 1.775 0.137 2.628 1.382 38.519 32.41 69.547 70.929 70.946 0.887 0.102 1.775 0.119 2.679 0.119 91.443 0 165.871 74.445 165.871 165.905 0 91.477-74.411 165.888-165.871 165.888s-165.888-74.411-165.888-165.888c0-14.336-11.622-25.958-25.958-25.958s-25.958 11.622-25.958 25.958c0 120.115 97.69 217.822 217.805 217.822 120.098 0 217.805-97.707 217.805-217.822-0.017-120.115-97.707-217.822-217.805-217.822v0z" />
<glyph unicode="&#xe921;" glyph-name="recibido" horiz-adv-x="1476" d="M509.442-64l-509.442 498.814 89.027 77.392 420.414-411.558 877.532 859.352 89.027-77.416-966.559-946.584z" />
<glyph unicode="&#xe922;" glyph-name="user" horiz-adv-x="1097" d="M1099.514-59.615h-1095.159v157.833c0 202.187 362.602 289.644 547.58 289.644s547.58-87.456 547.58-289.644v-157.833zM56.505-7.465h990.858v105.683c0 153.687-327.296 237.493-495.429 237.493-168.159 0-495.429-83.832-495.429-237.493v-105.683zM551.934 438.552c-143.779 0-260.752 115.513-260.752 257.493s116.973 257.493 260.752 257.493c143.779 0 260.752-115.513 260.752-257.493s-116.973-257.493-260.752-257.493zM551.934 901.387c-115.018 0-208.602-92.124-208.602-205.342s93.584-205.342 208.602-205.342 208.602 92.124 208.602 205.342-93.584 205.342-208.602 205.342z" />
</font>
</defs>
</svg>
